<svg width="80" height="631" viewBox="0 0 80 631" fill="none" xmlns="http://www.w3.org/2000/svg">
<path d="M76.2247 582.6L76.3087 562.6L1.31002 562.146L1.2261 582.146L28.7256 582.312L28.6081 610.312L1.10863 610.146L1.02471 630.146L76.0233 630.599L76.1073 610.6L46.6078 610.421L46.7253 582.421L76.2247 582.6ZM0.509672 514.56C0.417367 536.56 15.7495 552.753 38.8491 552.893C62.0487 553.033 77.416 537.026 77.5083 515.026C77.6002 493.126 62.368 476.934 39.1684 476.793C16.0688 476.654 0.601558 492.66 0.509672 514.56ZM19.5093 514.675C19.5517 504.575 26.8805 497.719 39.0803 497.793C51.3801 497.868 58.551 504.811 58.5086 514.911C58.4658 525.111 51.237 531.967 38.9372 531.893C26.7374 531.819 19.4665 524.875 19.5093 514.675ZM76.7076 467.515L76.7873 448.515L32.9881 448.25L76.8515 433.215L76.9262 415.415L33.7903 400.054L76.9896 400.316L77.0735 380.316L2.07484 379.862L1.95904 407.462L47.0936 423.135L1.82981 438.261L1.70897 467.061L76.7076 467.515ZM77.1239 368.297L77.3635 311.198L59.3638 311.089L59.2081 348.188L46.8084 348.113L46.9347 318.014L30.935 317.917L30.8087 348.017L19.7089 347.949L19.8645 310.85L2.36484 310.744L2.12527 367.843L77.1239 368.297ZM77.407 300.817L77.4909 280.817L51.6914 280.661L51.7371 269.761C51.8085 252.762 45.4606 240.323 27.7609 240.216C9.16128 240.103 2.6186 250.264 2.53804 269.464L2.40839 300.363L77.407 300.817ZM20.0302 271.37C20.0612 263.97 22.2729 261.183 27.6728 261.216C33.4727 261.251 35.7614 263.965 35.7299 271.465L35.6917 280.564L19.992 280.469L20.0302 271.37ZM59.8305 199.857C59.8041 206.157 56.8794 212.039 46.8796 211.979L2.78035 211.712L2.69644 231.712L49.9956 231.998C67.0953 232.101 78.737 222.172 78.8302 199.972C78.9292 176.372 67.3655 167.702 50.2658 167.598L2.96664 167.312L2.88273 187.312L46.9819 187.579C56.9817 187.639 59.8569 193.557 59.8305 199.857ZM3.01685 155.345L78.0155 155.799L78.0952 136.799L30.9961 136.514L78.2043 110.799L78.3104 85.4996L3.31181 85.0458L3.23209 104.046L50.5312 104.332L3.12468 129.645L3.01685 155.345ZM78.6651 0.976086L35.3299 33.1144L3.65806 2.52231L3.55149 27.9221L31.0457 53.1889L3.44618 53.0219L3.36226 73.0217L78.3609 73.4754L78.4448 53.4756L56.4452 53.3425L49.3739 46.4996L78.5631 25.2759L78.6651 0.976086Z" fill="white"/>
</svg>
