<svg width="75" height="89" viewBox="0 0 75 89" fill="none" xmlns="http://www.w3.org/2000/svg">
<path d="M73.99 81.7775L73.9938 37.5011C73.9941 34.1876 71.3084 31.5014 67.9949 31.5009L7.01117 31.4928C3.69723 31.4924 1.01033 34.1787 1.01004 37.4926L1.0062 81.7841C1.00591 85.0981 3.69249 87.7847 7.00654 87.7843L67.9903 87.7773C71.3037 87.777 73.9897 85.0909 73.99 81.7775Z" fill="#F1F0F0" stroke="#F1F0F0" stroke-miterlimit="10"/>
<path d="M16.6792 31.8356V10C16.6792 6.68629 19.3655 4 22.6792 4H34.0667H52.3368C55.6505 4 58.3368 6.68629 58.3368 10V31.8356" stroke="#F1F0F0" stroke-width="8"/>
<path d="M54.4021 19.4407L42.1184 26.4116L37.6392 15.3673L33.2224 26.9229L20.8838 21.3062L26.3873 31.9758L11.9813 34.4242L24.9169 39.2804L15.2169 48.6165L29.3616 45.3281L28.9298 57.2033L37.7944 47.3201L46.8034 56.213L46.1515 44.3858L60.3921 46.075L50.6027 37.8268L63.4145 31.498L48.9849 30.7307L54.4021 19.4407Z" fill="#F1F0F0"/>
</svg>
