<svg width="1197" height="297" viewBox="0 0 1197 297" fill="none" xmlns="http://www.w3.org/2000/svg">
<rect width="1063" height="297" fill="#FF029C"/>
<path d="M92.02 223L157.36 88H118.84L92.38 142.54L63.4 88H21.1L72.4 184.12L53.5 223H92.02ZM215.887 190.6C197.527 190.6 185.107 177.64 185.107 155.5C185.107 133.54 197.527 120.4 215.887 120.4C232.087 120.4 243.067 129.94 246.847 145.96L281.947 133C274.567 104.92 251.707 86.2 215.887 86.2C175.387 86.2 147.487 113.92 147.487 155.5C147.487 197.26 175.387 224.8 215.887 224.8C251.167 224.8 274.027 206.8 281.587 177.64L247.567 165.58C243.427 181.06 232.447 190.6 215.887 190.6ZM370.982 223H406.982V88H289.982V223H325.982V120.4H370.982V223ZM421.298 223H524.078V190.6H457.298V168.28H511.478V139.48H457.298V119.5H524.078V88H421.298V223ZM603.963 88V190.6H571.563V88H535.563V223H708.363V88H672.363V190.6H639.963V88H603.963ZM809.177 223H845.177V88H809.177V137.5H758.777V88H722.777V223H758.777V169.9H809.177V223ZM923.621 86.2C884.021 86.2 855.041 113.92 855.041 155.5C855.041 197.26 884.021 224.8 923.621 224.8C963.041 224.8 992.021 197.26 992.021 155.5C992.021 113.92 963.041 86.2 923.621 86.2ZM923.621 120.4C941.801 120.4 954.221 133.54 954.221 155.5C954.221 177.64 941.801 190.6 923.621 190.6C905.261 190.6 892.841 177.64 892.841 155.5C892.841 133.54 905.261 120.4 923.621 120.4ZM1031.81 177.1L1036.67 137.68V88H1002.47V137.68L1007.33 177.1H1031.81ZM1036.67 223V192.4H1002.47V223H1036.67Z" fill="black"/>
</svg>
