<?xml version="1.0" encoding="utf-8"?>
<!-- Generator: Adobe Illustrator 26.0.2, SVG Export Plug-In . SVG Version: 6.00 Build 0)  -->
<svg version="1.1" id="Layer_1" xmlns="http://www.w3.org/2000/svg" xmlns:xlink="http://www.w3.org/1999/xlink" x="0px" y="0px"
	 viewBox="0 0 80 96.1" style="enable-background:new 0 0 80 96.1;" xml:space="preserve">
<style type="text/css">
	.st0{fill:none;}
	.st1{fill:#F1F0F0;stroke:#F1F0F0;stroke-miterlimit:10;}
	.st2{fill:none;stroke:#F1F0F0;stroke-width:8;}
	.st3{fill:#F1F0F0;}
</style>
<rect x="-46.1" y="-39.2" transform="matrix(0.9911 -0.1331 0.1331 0.9911 -4.8344 12.7262)" class="st0" width="277.7" height="163.4"/>
<path class="st1" d="M76.8,86.9l0-44.3c0-3.3-2.7-6-6-6l-61,0c-3.3,0-6,2.7-6,6l0,44.3c0,3.3,2.7,6,6,6l61,0
	C74.1,92.9,76.8,90.2,76.8,86.9z"/>
<path class="st2" d="M19.5,36.9V15.1c0-3.3,2.7-6,6-6h11.4h18.3c3.3,0,6,2.7,6,6v21.8"/>
<path class="st3" d="M57.2,24.5l-12.3,7l-4.5-11L36,32l-12.3-5.6l5.5,10.7l-14.4,2.4l12.9,4.9L18,53.7l14.1-3.3l-0.4,11.9l8.9-9.9
	l9,8.9l-0.7-11.8l14.2,1.7l-9.8-8.2l12.8-6.3l-14.4-0.8L57.2,24.5z"/>
</svg>
