<?xml version="1.0" encoding="utf-8"?>
<!-- Generator: Adobe Illustrator 26.0.2, SVG Export Plug-In . SVG Version: 6.00 Build 0)  -->
<svg version="1.1" id="Layer_1" xmlns="http://www.w3.org/2000/svg" xmlns:xlink="http://www.w3.org/1999/xlink" x="0px" y="0px"
	 viewBox="0 0 192 199" style="enable-background:new 0 0 192 199;" xml:space="preserve">
<style type="text/css">
	.st0{fill:none;}
	.st1{fill:#F1F0F0;stroke:#F1F0F0;stroke-miterlimit:10;}
	.st2{fill:none;stroke:#F1F0F0;stroke-width:8;}
	.st3{fill:#F1F0F0;}
</style>
<image style="overflow:visible;" width="192" height="199" xlink:href="../../../../../Downloads/Иллюстрация_без_названия 87 (1).png"  transform="matrix(1.1076 0 0 1.0953 -20.6575 -4.5784)">
</image>
<rect x="9.6" y="17.8" transform="matrix(0.9911 -0.1331 0.1331 0.9911 -11.9137 20.6448)" class="st0" width="277.7" height="163.4"/>
<path class="st1" d="M132.5,143.8l0-44.3c0-3.3-2.7-6-6-6l-61,0c-3.3,0-6,2.7-6,6l0,44.3c0,3.3,2.7,6,6,6l61,0
	C129.8,149.8,132.5,147.1,132.5,143.8z"/>
<path class="st2" d="M75.2,93.8V72c0-3.3,2.7-6,6-6h11.4h18.3c3.3,0,6,2.7,6,6v21.8"/>
<path class="st3" d="M112.9,81.4l-12.3,7l-4.5-11l-4.4,11.6l-12.3-5.6L84.9,94l-14.4,2.4l12.9,4.9l-9.7,9.3l14.1-3.3l-0.4,11.9
	l8.9-9.9l9,8.9l-0.7-11.8l14.2,1.7l-9.8-8.2l12.8-6.3l-14.4-0.8L112.9,81.4z"/>
</svg>
