<svg width="1440" height="75" viewBox="0 0 1440 75" fill="none" xmlns="http://www.w3.org/2000/svg">
<path d="M-1 75H18V31.2L33.3 75H51.1L66.2 31.8V75H86.2V-5.96046e-06H58.6L43.2 45.2L27.8 -5.96046e-06H-1V75ZM98.2188 75H155.319V57H118.219V44.6H148.319V28.6H118.219V17.5H155.319V-5.96046e-06H98.2188V75ZM165.699 75H185.699V49.2H196.599C213.599 49.2 225.999 42.8 225.999 25.1C225.999 6.49999 215.799 -5.96046e-06 196.599 -5.96046e-06H165.699V75ZM194.799 17.5C202.199 17.5 204.999 19.7 204.999 25.1C204.999 30.9 202.299 33.2 194.799 33.2H185.699V17.5H194.799ZM233.852 23.8C233.852 41.7 241.952 48.8 261.952 48.8C269.552 48.8 275.852 48.4 279.852 47.9V75H299.852V-5.96046e-06H279.852V30.4C275.952 31 270.952 31.3 265.852 31.3C256.652 31.3 253.852 27.8 253.852 20.2V-5.96046e-06H233.852V23.8ZM334.938 75H353.938V31.2L369.238 75H387.038L402.138 31.8V75H422.138V-5.96046e-06H394.538L379.138 45.2L363.738 -5.96046e-06H334.938V75ZM434.156 75H491.256V57H454.156V44.6H484.256V28.6H454.156V17.5H491.256V-5.96046e-06H434.156V75ZM501.637 75H521.637V49.2H532.537C549.537 49.2 561.937 42.8 561.937 25.1C561.937 6.49999 551.737 -5.96046e-06 532.537 -5.96046e-06H501.637V75ZM530.737 17.5C538.137 17.5 540.937 19.7 540.937 25.1C540.937 30.9 538.237 33.2 530.737 33.2H521.637V17.5H530.737ZM569.789 23.8C569.789 41.7 577.889 48.8 597.889 48.8C605.489 48.8 611.789 48.4 615.789 47.9V75H635.789V-5.96046e-06H615.789V30.4C611.889 31 606.889 31.3 601.789 31.3C592.589 31.3 589.789 27.8 589.789 20.2V-5.96046e-06H569.789V23.8ZM670.875 75H689.875V31.2L705.175 75H722.975L738.075 31.8V75H758.075V-5.96046e-06H730.475L715.075 45.2L699.675 -5.96046e-06H670.875V75ZM770.094 75H827.194V57H790.094V44.6H820.194V28.6H790.094V17.5H827.194V-5.96046e-06H770.094V75ZM837.574 75H857.574V49.2H868.474C885.474 49.2 897.874 42.8 897.874 25.1C897.874 6.49999 887.674 -5.96046e-06 868.474 -5.96046e-06H837.574V75ZM866.674 17.5C874.074 17.5 876.874 19.7 876.874 25.1C876.874 30.9 874.174 33.2 866.674 33.2H857.574V17.5H866.674ZM905.727 23.8C905.727 41.7 913.827 48.8 933.827 48.8C941.427 48.8 947.727 48.4 951.727 47.9V75H971.727V-5.96046e-06H951.727V30.4C947.827 31 942.827 31.3 937.727 31.3C928.527 31.3 925.727 27.8 925.727 20.2V-5.96046e-06H905.727V23.8ZM1006.81 75H1025.81V31.2L1041.11 75H1058.91L1074.01 31.8V75H1094.01V-5.96046e-06H1066.41L1051.01 45.2L1035.61 -5.96046e-06H1006.81V75ZM1106.03 75H1163.13V57H1126.03V44.6H1156.13V28.6H1126.03V17.5H1163.13V-5.96046e-06H1106.03V75ZM1173.51 75H1193.51V49.2H1204.41C1221.41 49.2 1233.81 42.8 1233.81 25.1C1233.81 6.49999 1223.61 -5.96046e-06 1204.41 -5.96046e-06H1173.51V75ZM1202.61 17.5C1210.01 17.5 1212.81 19.7 1212.81 25.1C1212.81 30.9 1210.11 33.2 1202.61 33.2H1193.51V17.5H1202.61ZM1241.66 23.8C1241.66 41.7 1249.76 48.8 1269.76 48.8C1277.36 48.8 1283.66 48.4 1287.66 47.9V75H1307.66V-5.96046e-06H1287.66V30.4C1283.76 31 1278.76 31.3 1273.66 31.3C1264.46 31.3 1261.66 27.8 1261.66 20.2V-5.96046e-06H1241.66V23.8ZM1342.75 75H1361.75V31.2L1377.05 75H1394.85L1409.95 31.8V75H1429.95V-5.96046e-06H1402.35L1386.95 45.2L1371.55 -5.96046e-06H1342.75V75ZM1441.97 75H1499.07V57H1461.97V44.6H1492.07V28.6H1461.97V17.5H1499.07V-5.96046e-06H1441.97V75ZM1509.45 75H1529.45V49.2H1540.35C1557.35 49.2 1569.75 42.8 1569.75 25.1C1569.75 6.49999 1559.55 -5.96046e-06 1540.35 -5.96046e-06H1509.45V75ZM1538.55 17.5C1545.95 17.5 1548.75 19.7 1548.75 25.1C1548.75 30.9 1546.05 33.2 1538.55 33.2H1529.45V17.5H1538.55ZM1577.6 23.8C1577.6 41.7 1585.7 48.8 1605.7 48.8C1613.3 48.8 1619.6 48.4 1623.6 47.9V75H1643.6V-5.96046e-06H1623.6V30.4C1619.7 31 1614.7 31.3 1609.6 31.3C1600.4 31.3 1597.6 27.8 1597.6 20.2V-5.96046e-06H1577.6V23.8Z" fill="black"/>
</svg>
