<svg width="1440" height="77" viewBox="0 0 1440 77" fill="none" xmlns="http://www.w3.org/2000/svg">
<path d="M41 76H61V0.999994H-4V76H16V19H41V76ZM72.9531 76H92.9531V50.2H103.853C120.853 50.2 133.253 43.8 133.253 26.1C133.253 7.49999 123.053 0.999994 103.853 0.999994H72.9531V76ZM102.053 18.5C109.453 18.5 112.253 20.7 112.253 26.1C112.253 31.9 109.553 34.2 102.053 34.2H92.9531V18.5H102.053ZM176.229 -5.00679e-06C154.229 -5.00679e-06 138.129 15.4 138.129 38.5C138.129 61.7 154.229 77 176.229 77C198.129 77 214.229 61.7 214.229 38.5C214.229 15.4 198.129 -5.00679e-06 176.229 -5.00679e-06ZM176.229 19C186.329 19 193.229 26.3 193.229 38.5C193.229 50.8 186.329 58 176.229 58C166.029 58 159.129 50.8 159.129 38.5C159.129 26.3 166.029 19 176.229 19ZM222.258 24.8C222.258 42.7 230.358 49.8 250.358 49.8C257.958 49.8 264.258 49.4 268.258 48.9V76H288.258V0.999994H268.258V31.4C264.358 32 259.358 32.3 254.258 32.3C245.058 32.3 242.258 28.8 242.258 21.2V0.999994H222.258V24.8ZM300.297 76H357.397V58H320.297V45.6H350.397V29.6H320.297V18.5H357.397V0.999994H300.297V76ZM367.777 76H424.877V58H387.777V45.6H417.877V29.6H387.777V18.5H424.877V0.999994H367.777V76ZM503.305 76H523.305V0.999994H458.305V76H478.305V19H503.305V76ZM535.258 76H555.258V50.2H566.158C583.158 50.2 595.558 43.8 595.558 26.1C595.558 7.49999 585.358 0.999994 566.158 0.999994H535.258V76ZM564.358 18.5C571.758 18.5 574.558 20.7 574.558 26.1C574.558 31.9 571.858 34.2 564.358 34.2H555.258V18.5H564.358ZM638.534 -5.00679e-06C616.534 -5.00679e-06 600.434 15.4 600.434 38.5C600.434 61.7 616.534 77 638.534 77C660.434 77 676.534 61.7 676.534 38.5C676.534 15.4 660.434 -5.00679e-06 638.534 -5.00679e-06ZM638.534 19C648.634 19 655.534 26.3 655.534 38.5C655.534 50.8 648.634 58 638.534 58C628.334 58 621.434 50.8 621.434 38.5C621.434 26.3 628.334 19 638.534 19ZM684.563 24.8C684.563 42.7 692.663 49.8 712.663 49.8C720.263 49.8 726.563 49.4 730.563 48.9V76H750.563V0.999994H730.563V31.4C726.663 32 721.663 32.3 716.563 32.3C707.363 32.3 704.563 28.8 704.563 21.2V0.999994H684.563V24.8ZM762.602 76H819.702V58H782.602V45.6H812.702V29.6H782.602V18.5H819.702V0.999994H762.602V76ZM830.082 76H887.182V58H850.082V45.6H880.182V29.6H850.082V18.5H887.182V0.999994H830.082V76ZM965.609 76H985.609V0.999994H920.609V76H940.609V19H965.609V76ZM997.563 76H1017.56V50.2H1028.46C1045.46 50.2 1057.86 43.8 1057.86 26.1C1057.86 7.49999 1047.66 0.999994 1028.46 0.999994H997.563V76ZM1026.66 18.5C1034.06 18.5 1036.86 20.7 1036.86 26.1C1036.86 31.9 1034.16 34.2 1026.66 34.2H1017.56V18.5H1026.66ZM1100.84 -5.00679e-06C1078.84 -5.00679e-06 1062.74 15.4 1062.74 38.5C1062.74 61.7 1078.84 77 1100.84 77C1122.74 77 1138.84 61.7 1138.84 38.5C1138.84 15.4 1122.74 -5.00679e-06 1100.84 -5.00679e-06ZM1100.84 19C1110.94 19 1117.84 26.3 1117.84 38.5C1117.84 50.8 1110.94 58 1100.84 58C1090.64 58 1083.74 50.8 1083.74 38.5C1083.74 26.3 1090.64 19 1100.84 19ZM1146.87 24.8C1146.87 42.7 1154.97 49.8 1174.97 49.8C1182.57 49.8 1188.87 49.4 1192.87 48.9V76H1212.87V0.999994H1192.87V31.4C1188.97 32 1183.97 32.3 1178.87 32.3C1169.67 32.3 1166.87 28.8 1166.87 21.2V0.999994H1146.87V24.8ZM1224.91 76H1282.01V58H1244.91V45.6H1275.01V29.6H1244.91V18.5H1282.01V0.999994H1224.91V76ZM1292.39 76H1349.49V58H1312.39V45.6H1342.49V29.6H1312.39V18.5H1349.49V0.999994H1292.39V76ZM1427.91 76H1447.91V0.999994H1382.91V76H1402.91V19H1427.91V76ZM1459.87 76H1479.87V50.2H1490.77C1507.77 50.2 1520.17 43.8 1520.17 26.1C1520.17 7.49999 1509.97 0.999994 1490.77 0.999994H1459.87V76ZM1488.97 18.5C1496.37 18.5 1499.17 20.7 1499.17 26.1C1499.17 31.9 1496.47 34.2 1488.97 34.2H1479.87V18.5H1488.97ZM1563.14 -5.00679e-06C1541.14 -5.00679e-06 1525.04 15.4 1525.04 38.5C1525.04 61.7 1541.14 77 1563.14 77C1585.04 77 1601.14 61.7 1601.14 38.5C1601.14 15.4 1585.04 -5.00679e-06 1563.14 -5.00679e-06ZM1563.14 19C1573.24 19 1580.14 26.3 1580.14 38.5C1580.14 50.8 1573.24 58 1563.14 58C1552.94 58 1546.04 50.8 1546.04 38.5C1546.04 26.3 1552.94 19 1563.14 19Z" fill="black"/>
</svg>
